<svg xmlns="http://www.w3.org/2000/svg" viewBox="0 0 64 64" role="img" aria-label="porthole">
  <defs>
    <linearGradient id="glass" x1="0" y1="0" x2="0" y2="1">
      <stop offset="0" stop-color="#7cc6e8"/>
      <stop offset="0.5" stop-color="#2f8fc0"/>
      <stop offset="1" stop-color="#0b3d5c"/>
    </linearGradient>
  </defs>
  <!-- 外框(船身金屬環) -->
  <circle cx="32" cy="32" r="30" fill="#001529"/>
  <circle cx="32" cy="32" r="30" fill="none" stroke="#3a4a5a" stroke-width="2"/>
  <!-- 玻璃 -->
  <circle cx="32" cy="32" r="21" fill="url(#glass)"/>
  <!-- 海平面 -->
  <path d="M11 36 a21 21 0 0 0 42 0 z" fill="#0b3d5c" opacity="0.55"/>
  <!-- 玻璃反光 -->
  <path d="M20 20 a18 18 0 0 1 14 -6 a26 26 0 0 0 -18 12 z" fill="#ffffff" opacity="0.25"/>
  <!-- 鉚釘 -->
  <g fill="#c9a44c">
    <circle cx="32" cy="6.5" r="2.2"/>
    <circle cx="32" cy="57.5" r="2.2"/>
    <circle cx="6.5" cy="32" r="2.2"/>
    <circle cx="57.5" cy="32" r="2.2"/>
    <circle cx="14" cy="14" r="2"/>
    <circle cx="50" cy="14" r="2"/>
    <circle cx="14" cy="50" r="2"/>
    <circle cx="50" cy="50" r="2"/>
  </g>
</svg>
